<?xml version="1.0" standalone="no"?>
<!DOCTYPE svg PUBLIC "-//W3C//DTD SVG 20010904//EN"
 "http://www.w3.org/TR/2001/REC-SVG-20010904/DTD/svg10.dtd">
<svg version="1.0" xmlns="http://www.w3.org/2000/svg"
 width="422.000000pt" height="371.000000pt" viewBox="0 0 422.000000 371.000000"
 preserveAspectRatio="xMidYMid meet">

<g transform="translate(0.000000,371.000000) scale(0.100000,-0.100000)"
fill="#000000" stroke="none">
<path d="M2080 3641 c-14 -5 -88 -39 -165 -76 -77 -37 -198 -96 -270 -130 -71
-34 -195 -94 -275 -133 -80 -38 -226 -109 -325 -156 -99 -48 -200 -97 -224
-109 -24 -12 -63 -44 -87 -70 -49 -55 -64 -98 -109 -307 -8 -41 -20 -91 -25
-110 -5 -19 -20 -84 -33 -145 -14 -60 -37 -162 -52 -225 -14 -63 -36 -162 -50
-220 -48 -214 -76 -337 -90 -397 -38 -158 -10 -222 213 -488 9 -11 38 -47 65
-80 26 -33 124 -157 218 -275 94 -118 184 -231 199 -250 230 -291 231 -292
308 -326 l53 -24 728 0 c793 0 773 -1 849 56 18 15 88 94 154 178 66 83 127
160 136 171 9 11 40 49 67 84 28 34 64 80 80 100 56 69 92 116 200 251 58 74
114 144 123 155 9 11 33 40 52 65 19 25 37 47 40 50 29 26 81 117 95 164 18
63 19 61 -21 234 -8 34 -21 92 -29 130 -9 37 -20 85 -25 107 -5 22 -16 72 -25
110 -8 39 -20 88 -25 110 -17 73 -99 434 -136 597 -48 218 -71 270 -140 323
-19 15 -103 59 -187 99 -83 41 -219 106 -302 146 -352 170 -446 215 -550 265
-60 29 -144 69 -185 90 -62 31 -88 38 -150 41 -41 2 -86 0 -100 -5z m218 -137
c53 -26 160 -77 237 -114 77 -37 199 -96 270 -130 118 -57 351 -170 591 -286
50 -24 100 -54 111 -67 26 -28 53 -81 53 -103 0 -10 4 -31 10 -48 5 -17 16
-65 25 -106 8 -41 20 -91 25 -110 5 -19 16 -69 25 -110 9 -41 20 -91 25 -110
5 -19 16 -69 25 -110 9 -41 20 -91 25 -110 5 -19 16 -69 25 -110 9 -41 20 -91
25 -110 5 -19 16 -69 25 -110 9 -41 20 -91 25 -110 45 -170 49 -223 24 -273
-14 -26 -105 -149 -124 -167 -3 -3 -28 -34 -55 -68 -28 -35 -63 -81 -80 -101
-16 -20 -43 -54 -60 -75 -48 -61 -244 -307 -278 -350 -18 -22 -45 -56 -62 -77
-30 -37 -117 -147 -145 -183 -42 -54 -97 -109 -121 -122 -24 -12 -147 -14
-761 -14 -677 0 -735 1 -758 17 -40 28 -47 36 -251 293 -107 135 -292 367
-410 515 -118 149 -225 285 -238 303 -45 65 -47 102 -11 242 5 19 16 69 25
110 9 41 20 91 25 110 5 19 16 69 25 110 9 41 20 91 25 110 5 19 16 69 25 110
9 41 20 91 25 110 5 19 17 69 25 110 9 41 20 91 25 110 5 19 17 69 25 110 9
41 20 91 25 110 5 19 17 66 26 104 20 77 53 119 120 150 42 20 224 107 454
218 390 189 644 311 740 356 69 32 108 28 218 -24z"/>
<path d="M1620 2959 c-280 -53 -503 -253 -586 -527 -23 -73 -26 -104 -26 -212
0 -76 5 -143 12 -166 47 -143 70 -194 120 -264 31 -44 134 -148 180 -181 47
-34 181 -98 222 -106 18 -3 41 -10 51 -15 24 -12 281 -13 315 0 15 5 54 18 87
28 116 36 243 122 320 217 22 27 45 54 50 61 56 67 111 213 126 331 30 244
-53 477 -230 643 -168 157 -422 233 -641 191z m298 -85 c135 -37 275 -127 357
-232 96 -121 145 -263 145 -419 0 -126 -18 -198 -78 -318 -25 -51 -118 -175
-130 -175 -4 0 -20 -12 -37 -28 -40 -36 -100 -74 -155 -96 -25 -10 -54 -22
-65 -27 -102 -42 -280 -38 -430 9 -147 45 -308 192 -378 342 -43 93 -45 99
-57 164 -40 229 32 453 195 611 76 74 151 119 258 156 71 24 98 28 200 29 78
0 138 -5 175 -16z"/>
<path d="M1717 2773 c-4 -3 -7 -19 -7 -35 0 -26 3 -28 40 -28 39 0 40 1 40 35
0 33 -2 35 -33 35 -19 0 -37 -3 -40 -7z"/>
<path d="M1745 2224 c-206 -206 -375 -380 -375 -385 0 -10 27 3 314 147 l201
102 110 219 c145 289 146 293 135 293 -6 0 -179 -169 -385 -376z"/>
<path d="M1197 2253 c-4 -3 -7 -19 -7 -35 0 -26 3 -28 40 -28 39 0 40 1 40 35
0 33 -2 35 -33 35 -19 0 -37 -3 -40 -7z"/>
<path d="M2240 2225 c0 -33 2 -35 35 -35 33 0 35 2 35 35 0 33 -2 35 -35 35
-33 0 -35 -2 -35 -35z"/>
<path d="M1715 1720 c-3 -11 -3 -29 0 -41 5 -16 14 -19 38 -17 29 3 32 6 35
41 3 36 3 37 -32 37 -26 0 -36 -5 -41 -20z"/>
<path d="M3055 1963 c-117 -14 -268 -78 -395 -167 -90 -64 -107 -78 -288 -248
-172 -161 -315 -265 -432 -312 -25 -10 -54 -22 -65 -27 -23 -9 -107 -32 -176
-48 -26 -6 -127 -13 -225 -16 -191 -7 -226 -14 -262 -54 -32 -37 -42 -82 -42
-198 l0 -103 995 0 995 0 0 590 0 590 -37 -1 c-21 -1 -51 -4 -68 -6z"/>
</g>
</svg>
